<mxfile host="app.diagrams.net" modified="2022-03-27T16:22:17.254Z" agent="5.0 (Windows NT 10.0; Win64; x64) AppleWebKit/537.36 (KHTML, like Gecko) Chrome/99.0.4844.84 Safari/537.36" etag="cNYxaYIAdLX412U1Y2x7" version="16.4.8" type="github">
  <diagram id="aijwR3GjM8ESbRPVELiO" name="Page-1">
    <mxGraphModel dx="1038" dy="1743" grid="1" gridSize="10" guides="1" tooltips="1" connect="1" arrows="1" fold="1" page="1" pageScale="1" pageWidth="850" pageHeight="1100" background="#DAD2D8" math="0" shadow="0">
      <root>
        <mxCell id="0" />
        <mxCell id="1" parent="0" />
        <mxCell id="VNc9tmtruzd9hnjmCU_e-8" value="" style="edgeStyle=orthogonalEdgeStyle;rounded=0;orthogonalLoop=1;jettySize=auto;html=1;labelBackgroundColor=#DAD2D8;strokeColor=#A8201A;fontColor=#143642;" edge="1" parent="1" source="VNc9tmtruzd9hnjmCU_e-1" target="VNc9tmtruzd9hnjmCU_e-7">
          <mxGeometry relative="1" as="geometry" />
        </mxCell>
        <mxCell id="VNc9tmtruzd9hnjmCU_e-1" value="web app&lt;br&gt;html/javascript-&amp;gt;productService" style="rounded=0;whiteSpace=wrap;html=1;fillColor=#FAE5C7;strokeColor=#0F8B8D;fontColor=#143642;" vertex="1" parent="1">
          <mxGeometry x="150" y="40" width="180" height="100" as="geometry" />
        </mxCell>
        <mxCell id="VNc9tmtruzd9hnjmCU_e-2" value="Product Catalog" style="text;html=1;align=center;verticalAlign=middle;resizable=0;points=[];autosize=1;strokeColor=none;fillColor=none;fontColor=#143642;" vertex="1" parent="1">
          <mxGeometry x="30" y="10" width="100" height="20" as="geometry" />
        </mxCell>
        <mxCell id="VNc9tmtruzd9hnjmCU_e-3" value="Actor" style="shape=umlActor;verticalLabelPosition=bottom;verticalAlign=top;html=1;outlineConnect=0;fillColor=#FAE5C7;strokeColor=#0F8B8D;fontColor=#143642;" vertex="1" parent="1">
          <mxGeometry x="10" y="60" width="30" height="60" as="geometry" />
        </mxCell>
        <mxCell id="VNc9tmtruzd9hnjmCU_e-4" value="" style="endArrow=classic;html=1;rounded=0;labelBackgroundColor=#DAD2D8;strokeColor=#A8201A;fontColor=#143642;" edge="1" parent="1">
          <mxGeometry relative="1" as="geometry">
            <mxPoint x="40" y="89.5" as="sourcePoint" />
            <mxPoint x="150" y="90" as="targetPoint" />
          </mxGeometry>
        </mxCell>
        <mxCell id="VNc9tmtruzd9hnjmCU_e-10" value="" style="edgeStyle=orthogonalEdgeStyle;rounded=0;orthogonalLoop=1;jettySize=auto;html=1;labelBackgroundColor=#DAD2D8;strokeColor=#A8201A;fontColor=#143642;" edge="1" parent="1" source="VNc9tmtruzd9hnjmCU_e-7">
          <mxGeometry relative="1" as="geometry">
            <mxPoint x="660" y="95" as="targetPoint" />
          </mxGeometry>
        </mxCell>
        <mxCell id="VNc9tmtruzd9hnjmCU_e-33" style="edgeStyle=orthogonalEdgeStyle;rounded=0;orthogonalLoop=1;jettySize=auto;html=1;entryX=0;entryY=0;entryDx=0;entryDy=52.5;entryPerimeter=0;labelBackgroundColor=#DAD2D8;strokeColor=#A8201A;fontColor=#143642;" edge="1" parent="1" source="VNc9tmtruzd9hnjmCU_e-7" target="VNc9tmtruzd9hnjmCU_e-29">
          <mxGeometry relative="1" as="geometry">
            <Array as="points">
              <mxPoint x="590" y="303" />
            </Array>
          </mxGeometry>
        </mxCell>
        <mxCell id="VNc9tmtruzd9hnjmCU_e-7" value="ProductService" style="whiteSpace=wrap;html=1;rounded=0;fillColor=#FAE5C7;strokeColor=#0F8B8D;fontColor=#143642;" vertex="1" parent="1">
          <mxGeometry x="450" y="60" width="140" height="80" as="geometry" />
        </mxCell>
        <mxCell id="VNc9tmtruzd9hnjmCU_e-30" value="" style="edgeStyle=orthogonalEdgeStyle;rounded=0;orthogonalLoop=1;jettySize=auto;html=1;labelBackgroundColor=#DAD2D8;strokeColor=#A8201A;fontColor=#143642;" edge="1" parent="1" source="VNc9tmtruzd9hnjmCU_e-11" target="VNc9tmtruzd9hnjmCU_e-29">
          <mxGeometry relative="1" as="geometry" />
        </mxCell>
        <mxCell id="VNc9tmtruzd9hnjmCU_e-11" value="No Sql DB" style="shape=cylinder3;whiteSpace=wrap;html=1;boundedLbl=1;backgroundOutline=1;size=15;fillColor=#FAE5C7;strokeColor=#0F8B8D;fontColor=#143642;" vertex="1" parent="1">
          <mxGeometry x="830" y="55" width="60" height="80" as="geometry" />
        </mxCell>
        <mxCell id="VNc9tmtruzd9hnjmCU_e-13" value="S3" style="ellipse;shape=cloud;whiteSpace=wrap;html=1;fillColor=#FAE5C7;strokeColor=#0F8B8D;fontColor=#143642;" vertex="1" parent="1">
          <mxGeometry x="470" y="-120" width="120" height="80" as="geometry" />
        </mxCell>
        <mxCell id="VNc9tmtruzd9hnjmCU_e-15" value="" style="endArrow=classic;html=1;rounded=0;entryX=0.55;entryY=0.95;entryDx=0;entryDy=0;entryPerimeter=0;labelBackgroundColor=#DAD2D8;strokeColor=#A8201A;fontColor=#143642;" edge="1" parent="1" target="VNc9tmtruzd9hnjmCU_e-19">
          <mxGeometry width="50" height="50" relative="1" as="geometry">
            <mxPoint x="320" y="40" as="sourcePoint" />
            <mxPoint x="370" y="-10" as="targetPoint" />
          </mxGeometry>
        </mxCell>
        <mxCell id="VNc9tmtruzd9hnjmCU_e-18" value="" style="endArrow=classic;html=1;rounded=0;exitX=0.96;exitY=0.7;exitDx=0;exitDy=0;exitPerimeter=0;entryX=0.07;entryY=0.4;entryDx=0;entryDy=0;entryPerimeter=0;labelBackgroundColor=#DAD2D8;strokeColor=#A8201A;fontColor=#143642;" edge="1" parent="1" source="VNc9tmtruzd9hnjmCU_e-19" target="VNc9tmtruzd9hnjmCU_e-13">
          <mxGeometry width="50" height="50" relative="1" as="geometry">
            <mxPoint x="520" y="50" as="sourcePoint" />
            <mxPoint x="550" as="targetPoint" />
            <Array as="points">
              <mxPoint x="420" y="-60" />
            </Array>
          </mxGeometry>
        </mxCell>
        <mxCell id="VNc9tmtruzd9hnjmCU_e-19" value="CDN" style="ellipse;shape=cloud;whiteSpace=wrap;html=1;fillColor=#FAE5C7;strokeColor=#0F8B8D;fontColor=#143642;" vertex="1" parent="1">
          <mxGeometry x="300" y="-120" width="120" height="80" as="geometry" />
        </mxCell>
        <mxCell id="VNc9tmtruzd9hnjmCU_e-27" style="edgeStyle=orthogonalEdgeStyle;rounded=0;orthogonalLoop=1;jettySize=auto;html=1;entryX=0;entryY=0.5;entryDx=0;entryDy=0;entryPerimeter=0;labelBackgroundColor=#DAD2D8;strokeColor=#A8201A;fontColor=#143642;" edge="1" parent="1" source="VNc9tmtruzd9hnjmCU_e-25" target="VNc9tmtruzd9hnjmCU_e-11">
          <mxGeometry relative="1" as="geometry" />
        </mxCell>
        <mxCell id="VNc9tmtruzd9hnjmCU_e-25" value="distributed cache&lt;br&gt;" style="ellipse;shape=cloud;whiteSpace=wrap;html=1;fillColor=#FAE5C7;strokeColor=#0F8B8D;fontColor=#143642;" vertex="1" parent="1">
          <mxGeometry x="660" y="50" width="120" height="90" as="geometry" />
        </mxCell>
        <mxCell id="VNc9tmtruzd9hnjmCU_e-29" value="elastic search" style="shape=cylinder3;whiteSpace=wrap;html=1;boundedLbl=1;backgroundOutline=1;size=15;fillColor=#FAE5C7;strokeColor=#0F8B8D;fontColor=#143642;" vertex="1" parent="1">
          <mxGeometry x="780" y="250" width="60" height="80" as="geometry" />
        </mxCell>
      </root>
    </mxGraphModel>
  </diagram>
</mxfile>
